<svg width="16" height="16" viewBox="0 0 16 16" fill="none" xmlns="http://www.w3.org/2000/svg">
<path d="M4.45165 13.4232L4.45168 13.4232C4.61978 13.3764 4.79956 13.3978 4.95199 13.4827C5.85578 13.9862 6.89203 14.2743 8 14.2743C11.4721 14.2743 14.275 11.4714 14.275 7.99927C14.275 4.52714 11.4721 1.72427 8 1.72427C4.52787 1.72427 1.725 4.52714 1.725 7.99927C1.725 9.10828 2.0142 10.1449 2.51873 11.0494C2.60391 11.2021 2.6253 11.3822 2.57824 11.5506M4.45165 13.4232L2.48193 11.5237M4.45165 13.4232L1.85255 14.1482M4.45165 13.4232L1.8211 14.2608M2.57824 11.5506L2.48193 11.5237M2.57824 11.5506L2.57825 11.5506L2.48193 11.5237M2.57824 11.5506L1.85255 14.1482M2.48193 11.5237L1.73995 14.1796L1.85255 14.1482M1.85255 14.1482L1.8211 14.2608M1.8211 14.2608L1.7085 14.2922L1.8211 14.2608ZM5.01158 8.25413L5.01143 8.25393L5.00909 8.2508C4.9596 8.18457 4.77594 7.93879 4.6033 7.59868C4.42851 7.25436 4.2606 6.80492 4.2606 6.3418C4.2606 5.47584 4.69057 5.019 4.87988 4.81787L5.01158 8.25413ZM5.01158 8.25413C5.01754 8.26206 5.02932 8.27959 5.04677 8.30555C5.26764 8.63408 6.39659 10.3134 8.1142 10.9905L8.15088 10.8975L5.01158 8.25413ZM11.7003 9.59223L11.7005 9.59249C11.7243 9.63264 11.7333 9.68965 11.7372 9.74117C11.7416 9.79827 11.7408 9.86861 11.7338 9.94819C11.7199 10.1076 11.6808 10.3101 11.6032 10.5275C11.5171 10.769 11.273 10.9897 11.0259 11.1494C10.7777 11.3098 10.4967 11.4278 10.3089 11.4446C10.3088 11.4446 10.3087 11.4446 10.3087 11.4446L11.7003 9.59223ZM11.7003 9.59223C11.6633 9.53038 11.6013 9.48973 11.5414 9.45682C11.5038 9.43612 11.4573 9.41365 11.4071 9.38935C11.3776 9.37509 11.3469 9.36021 11.3158 9.34468C11.2258 9.29961 10.9607 9.16873 10.6974 9.04164C10.4374 8.91609 10.1702 8.78984 10.082 8.75781C10.0029 8.72911 9.91023 8.69713 9.81798 8.70754C9.7146 8.7192 9.63151 8.77983 9.56103 8.88577C9.44616 9.05844 9.10786 9.45647 9.00222 9.57687L9.00202 9.57711M11.7003 9.59223L9.00202 9.57711M9.00202 9.57711C8.95918 9.62624 8.92764 9.64138 8.8991 9.64488C8.86651 9.64888 8.81708 9.64034 8.73415 9.5989C8.70195 9.5827 8.65916 9.56405 8.607 9.54133C8.35189 9.43017 7.8729 9.22145 7.31506 8.72441L7.31505 8.7244M9.00202 9.57711L7.31505 8.7244M6.33154 7.1936C6.24192 7.28248 6.14892 7.38058 6.25317 7.55908L6.33154 7.1936ZM6.33154 7.1936C6.3855 7.1399 6.44749 7.06453 6.50945 6.98919M6.33154 7.1936L6.50945 6.98919M7.31505 8.7244C6.7945 8.26067 6.44261 7.68527 6.33954 7.50867L6.33953 7.50865M7.31505 8.7244L6.33953 7.50865M6.33953 7.50865C6.29944 7.44001 6.30433 7.40209 6.31345 7.37741C6.32602 7.3434 6.35484 7.31133 6.40196 7.26461L6.40209 7.26448M6.33953 7.50865L6.40209 7.26448M6.40209 7.26448C6.45954 7.20729 6.52756 7.12464 6.59146 7.04699C6.62111 7.01096 6.64988 6.97601 6.67629 6.94518L6.67656 6.94487M6.40209 7.26448L6.67656 6.94487M6.67656 6.94487C6.76033 6.84625 6.79845 6.76823 6.84314 6.67674C6.85103 6.6606 6.85912 6.64403 6.86771 6.62687L6.67656 6.94487ZM0.4 7.99927C0.4 3.80865 3.80938 0.399268 8 0.399268C12.1906 0.399268 15.6 3.80865 15.6 7.99927C15.6 12.1899 12.1906 15.5993 8 15.5993C6.76899 15.5993 5.61923 15.2787 4.59312 14.7594L1.71785 15.5619C1.71783 15.5619 1.71782 15.5619 1.7178 15.5619C0.966356 15.772 0.228512 15.0343 0.438843 14.2829L0.4 7.99927ZM0.4 7.99927C0.4 9.23141 0.720944 10.3828 1.24134 11.4098L0.43886 14.2829L0.4 7.99927ZM6.50945 6.98919C6.54008 6.95196 6.5707 6.91473 6.60034 6.88013L6.50945 6.98919ZM5.46509 4.525C5.3224 4.525 5.1006 4.57823 4.91396 4.78141L5.8124 4.52947C5.70589 4.52526 5.58399 4.525 5.46509 4.525ZM5.81625 4.52961L5.81255 4.52947L6.76367 6.26855C6.74487 6.23079 6.67216 6.05162 6.58238 5.8304C6.4591 5.52661 6.30365 5.14353 6.21143 4.93848L6.30263 4.89747C6.30263 4.89747 6.30263 4.89746 6.30263 4.89746C6.23081 4.73773 6.15051 4.64131 6.05794 4.58761C5.96784 4.53534 5.87886 4.53198 5.81625 4.52961Z" fill="#F75B5D" stroke="#F75B5D" stroke-width="0.2"/>
</svg>
